<?xml version="1.0" encoding="utf-8"?>
<!-- Generator: Adobe Illustrator 26.3.1, SVG Export Plug-In . SVG Version: 6.00 Build 0)  -->
<svg version="1.1" id="Layer_1" xmlns="http://www.w3.org/2000/svg" xmlns:xlink="http://www.w3.org/1999/xlink" x="0px" y="0px"
	 viewBox="0 0 752 752" style="enable-background:new 0 0 752 752;" xml:space="preserve">
<style type="text/css">
	.st0{fill-rule:evenodd;clip-rule:evenodd;fill:#F8F4D1;}
</style>
<path class="st0" d="M21.9,67.8C9.5,67.8,0,77.9,0,89.7c0,5.9,2.4,11.3,6.5,15.4c4.1,4.1,9.5,6.5,15.4,6.5h111.3l35.5,106l0,0l0,0
	L250.5,461c-21.3,11.2-36.7,33.8-36.7,59.2c0,36.1,29.6,66.3,66.3,66.3h11.3c-3.6,8.3-5.3,17.2-5.3,27.2c0,39.1,32,71.1,71.1,71.1
	s71.1-32.6,71.1-71.1c0-9.5-1.8-18.4-5.3-27.2h74.6c-3.6,8.3-5.3,17.2-5.3,27.2c0,39.1,32,71.1,71.1,71.1
	c39.1,0,71.1-32.6,71.1-71.1c0-9.5-1.8-18.4-5.3-27.2h12.4l0,0c12.4,0,21.9-10.1,21.9-21.9c0-5.9-2.4-11.3-6.5-15.4
	c-4.1-4.1-9.5-6.5-15.4-6.5H280.1c-12.4,0-21.9-9.5-21.9-21.9c0-12.4,9.5-21.9,21.9-21.9h361.2c1.8,0,3.6,0,4.7-0.6
	c0.6,0,1.2-0.6,1.8-0.6c1.2-0.6,1.8-0.6,3-1.2c0.6,0,1.2-0.6,1.8-1.2c1.2-0.6,1.8-1.2,3-1.8c0.6-0.6,0.6-0.6,1.2-1.2
	c1.2-1.2,2.4-2.4,3-3.6c0-0.6,0.6-0.6,0.6-1.2c0.6-1.2,1.2-2.4,1.8-3.6v-0.6l88.8-265.3c2.4-6.5,1.2-14.2-3-20.1
	c-4.1-5.9-10.7-9.5-17.8-9.5h-524l-35.5-106c0,0,0-0.6-0.6-0.6c-0.6-0.6-0.6-1.8-1.2-2.4c0-0.6-0.6-1.2-1.2-1.8
	c-0.6-0.6-0.6-1.2-1.2-1.8c0-0.6-0.6-0.6-1.2-1.2c-0.6-0.6-1.2-1.2-2.4-2.4c-0.6-0.6-1.2-0.6-1.8-1.2c-0.6-0.6-1.8-1.2-2.4-1.8
	c-0.6,0-1.2-0.6-1.8-0.6s-1.2-0.6-1.8-0.6s-1.2-0.6-1.8-0.6c0,0,0,0-0.6,0s-1.8-0.6-2.4-0.6l0,0c-0.6,0-1.2,0-1.8,0H148L21.9,67.8z
	 M220.9,233h478.4l-74,220.9H294.9L220.9,233z M357,586.5c14.8,0,26.6,11.8,26.6,27.2c0,15.4-11.8,27.2-26.6,27.2
	c-14.8,0-27.2-11.8-27.2-27.2C329.8,598.3,341.6,586.5,357,586.5z M563.1,586.5c14.8,0,26.6,11.8,26.6,27.2
	c0,15.4-11.8,27.2-26.6,27.2c-14.8,0-26.6-11.8-26.6-27.2C535.9,598.3,547.7,586.5,563.1,586.5z"/>
</svg>
