<?xml version="1.0" encoding="utf-8"?>
<!-- Generator: Adobe Illustrator 26.3.1, SVG Export Plug-In . SVG Version: 6.00 Build 0)  -->
<svg version="1.1" id="Layer_1" xmlns="http://www.w3.org/2000/svg" xmlns:xlink="http://www.w3.org/1999/xlink" x="0px" y="0px"
	 viewBox="0 0 752 752" style="enable-background:new 0 0 752 752;" xml:space="preserve">
<style type="text/css">
	.st0{fill:#F8F4D1;}
</style>
<path class="st0" d="M52.5,41.7C23.5,41.7,0,65.2,0,94.2s23.5,52.5,52.5,52.5h647.1c29,0,52.5-23.5,52.5-52.5
	c0-29-23.5-52.5-52.5-52.5L52.5,41.7z M52.5,323.5C23.5,323.5,0,347,0,376s23.5,52.5,52.5,52.5h647.1c29,0,52.5-23.5,52.5-52.5
	c0-29-23.5-52.5-52.5-52.5H52.5z M52.5,608.4c-29,0-52.5,23.5-52.5,52.5c0,29,23.5,52.5,52.5,52.5h647.1c29,0,52.5-23.5,52.5-52.5
	c0-29-23.5-52.5-52.5-52.5L52.5,608.4z"/>
</svg>
